<svg xmlns="http://www.w3.org/2000/svg" viewBox="0 0 24 24"><defs><style>.cls-1,.cls-2{fill:none;stroke:#5876a3;stroke-linejoin:round;}.cls-1{stroke-linecap:round;}</style></defs><title>index_icon</title><g id="レイヤー_2" data-name="レイヤー 2"><path class="cls-1" d="M19.76,5.16V17.87a7.3,7.3,0,0,0-7.59,0,7.55,7.55,0,0,0-7.59,0L4.66,5.16H2.1V19.54H22.24V5.16Z"/><path class="cls-2" d="M12.22,5.16S8.38,2.3,4.66,5.1L4.58,17.87a7.55,7.55,0,0,1,7.59,0,7.3,7.3,0,0,1,7.59,0V5.16A6.35,6.35,0,0,0,12.22,5.16Z"/><line class="cls-2" x1="12.22" y1="5.16" x2="12.22" y2="17.87"/><path class="cls-1" d="M6.43,7.4a5.28,5.28,0,0,1,3.88,0"/><path class="cls-1" d="M6.43,10.4a5.28,5.28,0,0,1,3.88,0"/><path class="cls-1" d="M6.43,13.4a5.28,5.28,0,0,1,3.88,0"/><path class="cls-1" d="M14,7.4a5.28,5.28,0,0,1,3.88,0"/><path class="cls-1" d="M14,10.4a5.28,5.28,0,0,1,3.88,0"/><path class="cls-1" d="M14,13.4a5.28,5.28,0,0,1,3.88,0"/></g></svg>