<svg width="143" height="20" viewBox="0 0 143 20" fill="none" xmlns="http://www.w3.org/2000/svg">
<g clip-path="url(#clip0_1547_35813)">
<path d="M7.18109 -1.30795e-05C5.17484 -0.0750131 3.14359 0.674987 1.74984 2.00624C0.606091 3.10624 -0.000158539 4.49999 -0.000158539 6.02499C-0.000158539 6.43124 0.0560915 6.83749 0.149841 7.23749C0.156091 7.26874 0.168591 7.29999 0.174841 7.33124C0.174841 7.34374 0.174841 7.34999 0.181091 7.36249C0.193591 7.41874 0.218591 7.48749 0.237341 7.54374C0.712341 6.57499 1.21859 6.01249 1.51859 5.74374C1.51859 5.71249 1.51859 5.68749 1.52484 5.64374C1.52484 5.58749 1.53734 5.53124 1.54359 5.47499V5.42499C1.55609 5.38124 1.56234 5.33749 1.57484 5.29374C1.76234 4.28124 2.31859 3.55624 2.79359 3.09374C3.87484 2.04999 5.53109 1.44999 7.11859 1.51249C10.5061 1.64999 12.9186 4.11874 12.9186 7.51874C12.9186 10.6187 10.5436 13.0812 7.20609 13.5062C6.20609 13.6375 5.39984 13.5562 4.69359 13.4937C4.38734 13.4625 4.08109 13.4375 3.78109 13.425C2.40609 13.3937 1.57484 13.9562 1.57484 13.9562C1.09359 14.2437 0.693591 14.65 0.418591 15.1312C0.143591 15.6187 -0.000158539 16.1687 -0.000158539 16.725C-0.000158539 17.1875 0.0935914 17.6437 0.281091 18.0625C0.468591 18.4812 0.743591 18.8625 1.08734 19.1687C1.43109 19.475 1.83734 19.7062 2.27484 19.8437C2.71234 19.9812 3.18109 20.025 3.63734 19.975C4.09359 19.925 4.53734 19.775 4.93109 19.5375C5.32484 19.3 5.66859 18.9875 5.93734 18.6062C6.19984 18.2312 6.38734 17.8 6.47484 17.3437C6.56234 16.8937 6.54984 16.425 6.44984 15.975C6.44984 15.9562 6.43734 15.9312 6.43734 15.9125C6.43734 15.9 6.43109 15.8812 6.42484 15.8687C6.41859 15.8437 6.41234 15.8187 6.39984 15.7875C6.03109 15.8 5.66234 15.7875 5.29359 15.7437C5.06234 15.7125 4.86859 15.6937 4.69984 15.675L4.72484 15.7187V15.725C4.75609 15.775 4.78109 15.8187 4.81234 15.8687C4.83109 15.9 4.84984 15.9375 4.86234 15.975C4.96859 16.2062 5.02484 16.4625 5.02484 16.7187C5.03734 16.95 4.99984 17.1875 4.92484 17.4062C4.84359 17.625 4.72484 17.825 4.56859 18C4.41234 18.1687 4.21859 18.3125 4.00609 18.4062C3.79359 18.5062 3.56234 18.5562 3.33109 18.5687C3.09984 18.575 2.86234 18.5375 2.64984 18.4562C2.43109 18.375 2.23109 18.25 2.06234 18.0875C1.89359 17.925 1.75609 17.7375 1.66234 17.525C1.56859 17.3125 1.51234 17.0812 1.51234 16.85V16.725C1.51234 16.3812 1.61859 16.0437 1.81234 15.7562C2.00609 15.4687 2.28109 15.25 2.59984 15.1187C2.59984 15.1187 2.92484 14.9437 3.51234 14.9187C3.82484 14.9062 4.06859 14.8937 5.23109 15.0375C6.24359 15.1625 7.44984 15 7.69359 14.9625H7.71234H7.73109H7.73734C11.6686 14.3125 14.4311 11.3 14.4311 7.52499C14.4311 3.27499 11.4248 0.187487 7.18734 0.0124869L7.18109 -1.30795e-05ZM9.50609 6.77499C9.20609 5.42499 7.80609 4.16249 5.44984 4.58124C3.75609 4.88124 2.45609 5.83749 1.61234 6.84374C1.01859 7.54374 0.631091 8.44999 0.631091 8.44999C0.212341 9.34999 -0.0251585 10.1562 -0.000158539 11.1312C0.0248415 11.9437 0.256091 12.5812 0.643591 13.0937C0.743591 13.225 0.856091 13.3437 0.981091 13.4562C1.05609 13.4062 1.13109 13.3562 1.20609 13.3062C1.20609 13.3062 1.69984 12.9812 2.54359 12.8375C2.42484 12.775 2.26234 12.6312 2.21859 12.6C2.13734 12.5312 2.06234 12.4562 1.99359 12.3812C1.68109 12.0312 1.51859 11.6062 1.50609 11.0812C1.49359 10.6187 1.56859 10.1562 1.72484 9.71874C1.72484 9.71874 1.96859 8.97499 2.38109 8.31249C3.00609 7.32499 4.19984 6.31874 5.70609 6.05624C5.72484 6.05624 7.72484 5.71874 8.03109 7.09374C8.11859 7.48124 8.01234 7.90624 7.73734 8.26249C7.28734 8.84374 6.43734 9.18749 5.34984 9.22499C4.73109 9.24374 3.94984 9.13749 3.28734 8.86874C3.24359 8.84999 3.11234 8.78749 3.06859 8.76249C2.61859 9.29374 2.41859 10.125 2.41859 10.125C2.45609 10.1437 2.59359 10.2 2.59359 10.2C3.54984 10.6125 4.62484 10.7437 5.39984 10.7187C6.94359 10.6625 8.19984 10.1125 8.92484 9.17499C9.47484 8.46874 9.68109 7.58749 9.49984 6.76249L9.50609 6.77499Z" fill="#8A00EA"/>
<path d="M19.5508 16.6188V6.59375H20.8633L20.957 7.53125L21.032 7.4125C21.432 6.80625 22.2883 6.41875 23.2195 6.41875C25.0758 6.41875 26.4258 7.91875 26.4258 9.9875C26.4258 12.0563 25.0758 13.5688 23.2195 13.5688C22.332 13.5688 21.4695 13.175 21.0883 12.6L20.9945 12.4625V16.6188H19.5508ZM22.9445 7.68125C21.8508 7.68125 20.9945 8.46875 20.9945 9.475V10.5063C20.9945 11.5125 21.8508 12.3 22.9445 12.3C24.1633 12.3 24.9508 11.3938 24.9508 9.9875C24.9508 8.58125 24.1633 7.675 22.9445 7.675V7.68125Z" fill="#151219"/>
<path d="M28.2758 13.4V6.59376H29.5758L29.682 7.68751L29.757 7.53126C30.0945 6.86251 30.7758 6.46251 31.582 6.46251C31.8133 6.46251 32.0445 6.50001 32.257 6.57501V7.86251C32.057 7.83751 31.857 7.81876 31.6508 7.81876C30.3633 7.81876 29.7133 8.53751 29.7133 9.95626V13.3938H28.2695L28.2758 13.4Z" fill="#151219"/>
<path d="M36.7506 13.5688C34.7068 13.5688 33.2256 12.0625 33.2256 9.9875C33.2256 7.9125 34.7068 6.41875 36.7506 6.41875C38.7943 6.41875 40.2756 7.91875 40.2756 9.9875C40.2756 12.0563 38.7943 13.5688 36.7506 13.5688ZM36.7506 7.675C35.5443 7.675 34.7006 8.625 34.7006 9.9875C34.7006 11.35 35.5256 12.3125 36.7506 12.3125C37.9756 12.3125 38.8006 11.375 38.8006 9.9875C38.8006 8.6 37.9568 7.68125 36.7506 7.68125V7.675Z" fill="#151219"/>
<path d="M45.226 16.7875C43.4947 16.7875 42.2197 15.9188 41.901 14.5313L43.2572 14.1688C43.5447 15.0625 44.2447 15.55 45.2385 15.55C46.5135 15.55 47.3072 14.7375 47.3072 13.425V12.3313L47.2135 12.4625C46.7947 13.0625 45.951 13.4313 45.0072 13.4313C43.1572 13.4313 41.8135 11.9625 41.8135 9.93751C41.8135 7.91251 43.1885 6.42501 45.0072 6.42501C45.9447 6.42501 46.8135 6.81251 47.2197 7.41876L47.2947 7.53751L47.3822 6.60001H48.6822V13.3875C48.6822 15.4938 47.351 16.8 45.2135 16.8L45.226 16.7875ZM45.2947 7.68126C44.1135 7.68126 43.2885 8.60626 43.2885 9.93126C43.2885 11.2563 44.1135 12.1813 45.2947 12.1813C46.3885 12.1813 47.2447 11.4 47.2447 10.4V9.45001C47.2447 8.45001 46.3885 7.67501 45.2947 7.67501V7.68126Z" fill="#151219"/>
<path d="M53.6447 13.5688C51.7822 13.5688 50.4385 12.0625 50.4385 9.9875C50.4385 7.9125 51.7885 6.41875 53.6447 6.41875C54.576 6.41875 55.4447 6.80625 55.8447 7.4125L55.9197 7.53125L56.0072 6.59375H57.3072V13.4H56.0072L55.9197 12.4625L55.8447 12.5813C55.4447 13.1813 54.5822 13.575 53.6447 13.575V13.5688ZM53.9197 7.68125C52.7197 7.68125 51.9135 8.6125 51.9135 9.99375C51.9135 11.375 52.701 12.3063 53.9197 12.3063C55.0322 12.3063 55.8697 11.5375 55.8697 10.5125V9.48125C55.8697 8.475 55.0135 7.6875 53.9197 7.6875V7.68125Z" fill="#151219"/>
<path d="M62.8391 13.5688C61.1641 13.5688 60.4203 12.775 60.4203 10.9938V7.83751H59.2266V6.59376H60.4203V4.90001H61.8641V6.59376H63.7328V7.83751H61.8641V10.95C61.8641 11.9813 62.1891 12.325 63.1516 12.325C63.3641 12.325 63.5766 12.3063 63.7828 12.2688V13.4688C63.4703 13.5375 63.1516 13.575 62.8328 13.5688H62.8391Z" fill="#151219"/>
<path d="M68.6441 13.5688C66.5879 13.5688 65.1504 12.1125 65.1504 10.0313C65.1504 7.95 66.6316 6.41875 68.6754 6.41875C70.7191 6.41875 71.9254 7.7625 71.9254 9.75625C71.9254 9.95 71.9129 10.1438 71.8816 10.3313H66.6066V10.3875C66.7379 11.6063 67.5129 12.3375 68.6754 12.3375C69.4941 12.3375 70.1129 11.975 70.4691 11.2875L71.7691 11.6313C71.3129 12.825 70.1191 13.5625 68.6441 13.5625V13.5688ZM68.6691 7.60625C67.6441 7.60625 66.9129 8.19375 66.6754 9.21875L66.6629 9.28125H70.4816L70.4754 9.225C70.3129 8.18125 69.6691 7.60625 68.6754 7.60625H68.6691Z" fill="#151219"/>
<path d="M83.9127 9.98754C83.9127 12.1 82.519 13.5688 80.7065 13.5688C79.7877 13.5688 78.9064 13.1688 78.5377 12.5313H78.4814V16.6188H77.0439V6.59379H78.3502L78.4377 7.48754H78.4814C78.8564 6.85629 79.7314 6.42504 80.7127 6.42504C82.5377 6.42504 83.919 7.87504 83.919 9.99379L83.9127 9.98754ZM82.4502 9.98754C82.4502 8.55004 81.6189 7.67504 80.4377 7.67504C79.3314 7.67504 78.4814 8.48129 78.4814 9.47504V10.5125C78.4814 11.5188 79.3314 12.3125 80.4377 12.3125C81.6189 12.3125 82.4502 11.45 82.4502 10V9.98754Z" fill="#8A00EA"/>
<path d="M89.7443 6.5813V7.86255C89.5318 7.8313 89.3256 7.8188 89.1381 7.8188C87.8881 7.8188 87.1943 8.5063 87.1943 9.96255V13.4001H85.7568V6.60005H87.0506L87.1506 7.63755H87.1943C87.5131 6.9063 88.2318 6.47505 89.0631 6.47505C89.3193 6.47505 89.5506 6.5188 89.7381 6.58755L89.7443 6.5813Z" fill="#8A00EA"/>
<path d="M90.707 9.98753C90.707 7.88753 92.2008 6.41879 94.232 6.41879C96.2633 6.41879 97.757 7.88753 97.757 9.98753C97.757 12.0875 96.2633 13.5688 94.232 13.5688C92.2008 13.5688 90.707 12.1 90.707 9.98753ZM96.2883 9.98753C96.2883 8.59378 95.4258 7.67503 94.232 7.67503C93.0383 7.67503 92.1758 8.59378 92.1758 9.98753C92.1758 11.3813 93.0383 12.3188 94.232 12.3188C95.4258 12.3188 96.2883 11.4 96.2883 9.98753Z" fill="#8A00EA"/>
<path d="M99.3633 11.6438L100.657 11.325C100.888 12.0563 101.451 12.4188 102.207 12.4188C103.013 12.4188 103.532 12.0313 103.532 11.4813C103.532 11.05 103.213 10.7625 102.27 10.575L101.438 10.4188C100.088 10.1438 99.4258 9.52504 99.4258 8.53754C99.4258 7.31254 100.463 6.42504 102.132 6.42504C103.582 6.42504 104.563 7.10004 104.795 8.22504L103.488 8.52504C103.288 7.87504 102.801 7.56254 102.063 7.56254C101.288 7.56254 100.826 7.92504 100.826 8.45629C100.826 8.84379 101.057 9.07504 102.088 9.27504L102.92 9.45004C104.313 9.70629 104.92 10.325 104.92 11.375C104.92 12.6563 103.913 13.575 102.201 13.575C100.707 13.575 99.5945 12.8563 99.3695 11.65L99.3633 11.6438Z" fill="#8A00EA"/>
<path d="M113.863 9.98754C113.863 12.1 112.469 13.5688 110.657 13.5688C109.738 13.5688 108.857 13.1688 108.488 12.5313H108.432V16.6188H106.994V6.59379H108.3L108.388 7.48754H108.432C108.807 6.85629 109.682 6.42504 110.663 6.42504C112.488 6.42504 113.869 7.87504 113.869 9.99379L113.863 9.98754ZM112.394 9.98754C112.394 8.55004 111.563 7.67504 110.382 7.67504C109.275 7.67504 108.425 8.48129 108.425 9.47504V10.5125C108.425 11.5188 109.275 12.3125 110.382 12.3125C111.563 12.3125 112.394 11.45 112.394 10V9.98754Z" fill="#8A00EA"/>
<path d="M121.981 10.3375H116.7C116.813 11.675 117.663 12.35 118.769 12.35C119.575 12.35 120.206 11.9875 120.569 11.3L121.863 11.6438C121.419 12.8063 120.238 13.5688 118.744 13.5688C116.7 13.5688 115.25 12.1313 115.25 10.0313C115.25 7.93128 116.762 6.41879 118.775 6.41879C120.675 6.41879 122.025 7.72503 122.025 9.75628C122.025 9.95628 122.013 10.1313 121.981 10.3313V10.3375ZM116.756 9.28753H120.581C120.425 8.13753 119.731 7.60628 118.769 7.60628C117.75 7.60628 116.988 8.19378 116.756 9.28753Z" fill="#8A00EA"/>
<path d="M123.406 9.98753C123.406 7.88753 124.875 6.41879 126.888 6.41879C128.556 6.41879 129.863 7.39378 130.125 8.93753L128.675 9.15628C128.5 8.25003 127.781 7.67503 126.875 7.67503C125.756 7.67503 124.875 8.56878 124.875 9.98753C124.875 11.4063 125.75 12.3 126.888 12.3C127.794 12.3 128.556 11.7563 128.731 10.8313L130.125 11.0438C129.881 12.5375 128.544 13.5625 126.875 13.5625C124.875 13.5625 123.413 12.0938 123.413 9.98129L123.406 9.98753Z" fill="#8A00EA"/>
<path d="M136.068 12.275V13.4688C135.837 13.525 135.525 13.5688 135.118 13.5688C133.493 13.5688 132.7 12.8375 132.7 10.9938V7.83128H131.506V6.59378H132.7V4.89378H134.137V6.59378H136.006V7.83128H134.137V10.95C134.137 12.0125 134.5 12.3313 135.431 12.3313C135.631 12.3313 135.862 12.3188 136.062 12.275H136.068Z" fill="#8A00EA"/>
<path d="M137.45 11.6438L138.744 11.325C138.975 12.0563 139.538 12.4188 140.294 12.4188C141.1 12.4188 141.619 12.0313 141.619 11.4813C141.619 11.05 141.3 10.7625 140.356 10.575L139.525 10.4188C138.175 10.1438 137.513 9.52504 137.513 8.53754C137.513 7.31254 138.55 6.42504 140.219 6.42504C141.669 6.42504 142.65 7.10004 142.881 8.22504L141.575 8.52504C141.375 7.87504 140.888 7.56254 140.15 7.56254C139.375 7.56254 138.913 7.92504 138.913 8.45629C138.913 8.84379 139.144 9.07504 140.175 9.27504L141.006 9.45004C142.4 9.70629 143.006 10.325 143.006 11.375C143.006 12.6563 142 13.575 140.288 13.575C138.794 13.575 137.681 12.8563 137.456 11.65L137.45 11.6438Z" fill="#8A00EA"/>
</g>
<defs>
<clipPath id="clip0_1547_35813">
<rect width="143" height="20" fill="white"/>
</clipPath>
</defs>
</svg>
